# xmcd CD database file
#
# Track frame offsets:
#	150
#	14418
#	39566
#	66098
#	77171
#	106897
#	120312
#	150307
#	167907
#	202358
#	219695
#	239167
#	277059
#	299140
#	308784
#	318574
#	332179
#
# Disc length: 4758 seconds
#
# Revision: 1
# Processed by: cddbd v1.5.2PL0 Copyright (c) Steve Scherf et al.
# Submitted via: CDex 1.70beta2
#
DISCID=0b129411
DTITLE=Max Roach e vari - The Golden Years
DYEAR=2009
DGENRE=Jazz
TTITLE0=Monk - Bemsha Swing
TTITLE1=Booker Little - Milestones
TTITLE2=Roach - There will never be another you
TTITLE3=Powell - Twempus Fugue-It
TTITLE4=Roach - Blues Waltz
TTITLE5=Sonny Stitt and Bud Powell - All God's Chillun Got Rhythm
TTITLE6=Thad Jones - April in Paris
TTITLE7=Roach - Yardbird Suite
TTITLE8=Gillespie-Parker-Powell-Mingus-Roach - Salt Peanuts
TTITLE9=Roach - Conversation
TTITLE10=Roach - Stella by Starlight
TTITLE11=Roach - Parker's Mood
TTITLE12=Roach - Tympanalli
TTITLE13=Roach - Dr. Free-Zee
TTITLE14=Roach - Lepa
TTITLE15=Howard Rumsey's Lighthouse All Stars - A night in Tunisia
TTITLE16=Roach - Bemsha Swing
EXTD=YEAR: 2009
EXTT0=
EXTT1=
EXTT2=
EXTT3=
EXTT4=
EXTT5=
EXTT6=
EXTT7=
EXTT8=
EXTT9=
EXTT10=
EXTT11=
EXTT12=
EXTT13=
EXTT14=
EXTT15=
EXTT16=
PLAYORDER=
